<?xml version="1.0" encoding="utf-8"?>
<svg xmlns="http://www.w3.org/2000/svg" width="1000" height="600">
  <polyline points="411.434,548.136 415.805,547.923 420.031,547.762 424.293,547.544 428.626,547.359 432.966,547.157 437.261,546.987 441.572,546.775 445.892,546.624 450.201,546.415 454.538,546.227 458.857,546.028 463.163,545.868 467.493,545.631 471.873,545.454 476.189,545.216 480.49,545.073 484.847,544.867 489.183,544.633 493.485,544.495 497.848,544.222 502.199,544.114 506.487,543.89 510.848,543.682 515.22,543.511 519.528,543.295 523.828,543.18 528.189,542.918 532.515,542.724 536.795,542.472 541.143,542.37 545.499,542.15 549.842,541.93 554.168,541.791 558.452,541.532 562.76,541.435 567.067,541.179 571.377,540.995 575.72,540.812 580.092,540.642 584.443,540.441 588.794,540.282 593.089,540.103 597.415,539.868 601.782,539.753 606.042,539.49 610.343,539.43 614.706,539.157 619.066,538.993 623.379,538.809 627.739,538.677 632.056,538.415 636.324,538.332 640.7,538.184 644.986,537.963 649.292,537.82 653.675,537.661 658.045,537.475 662.418,537.345 666.775,537.117 671.047,536.993 675.358,536.828 679.735,536.652 684.006,536.48 688.242,536.336 692.607,536.116 696.979,535.985 701.317,535.845 705.648,535.665 709.956,535.482 714.308,535.371 718.68,535.201 722.959,535.134 727.141,534.93 731.56,534.731 735.917,534.578 740.236,534.384 744.584,534.263 748.935,534.106 753.23,533.903 757.559,533.753 761.889,533.618 766.221,533.458 770.575,533.311 774.917,533.197 779.244,533.0 783.569,532.908 787.903,532.788 792.201,532.65 796.557,532.548 800.937,532.443 805.218,532.299 809.531,532.202 813.899,532.083 818.24,531.987 822.497,531.872 826.894,531.748 831.296,531.637 835.588,531.495 839.907,531.378 844.281,531.213 848.634,531.038 852.917,530.798 857.228,530.441 861.54,529.811 865.849,528.747 870.125,527.023 874.022,524.436 876.787,521.46 878.145,519.284 878.761,517.791 879.3,515.83 879.65,512.556 879.005,508.259 877.167,504.058 874.64,500.489 871.674,497.289 868.561,494.258 865.394,491.308 862.381,488.249 859.473,485.004 856.836,481.548 854.445,477.884 852.557,474.474 851.329,471.434 850.315,468.422 849.495,465.072 848.817,461.046 848.414,456.52 848.404,451.976 848.728,447.531 849.333,443.185 850.208,438.919 851.25,434.694 852.407,430.529 853.642,426.398 854.896,422.281 856.099,418.178 857.222,414.075 858.211,410.081 859.093,406.106 859.858,402.149 860.515,398.078 861.039,393.91 861.481,389.721 861.697,385.419 861.796,381.052 861.794,376.712 861.643,372.297 861.366,367.872 860.989,363.592 860.525,359.338 859.925,354.963 859.262,350.654 858.565,346.415 857.842,342.157 857.052,337.887 856.233,333.659 855.352,329.384 854.553,325.174 853.696,320.939 852.834,316.666 852.015,312.385 851.105,308.119 850.264,303.908 849.448,299.611 848.534,295.437 847.71,291.207 846.856,286.876 846.049,282.635 845.185,278.41 844.391,274.171 843.542,269.947 842.794,265.684 841.929,261.491 841.175,257.157 840.306,252.868 839.585,248.622 838.758,244.342 837.996,240.101 837.22,235.847 836.426,231.551 835.669,227.293 834.892,223.045 834.058,218.743 833.299,214.48 832.533,210.278 831.735,205.99 830.94,201.68 830.151,197.461 829.365,193.234 828.578,188.973 827.785,184.76 827.027,180.422 826.224,176.058 825.451,171.782 824.671,167.521 823.897,163.251 823.151,159.045 822.399,154.881 821.654,150.695 820.893,146.466 820.143,142.188 819.383,137.872 818.613,133.555 817.847,129.311 817.09,125.037 816.32,120.773 815.563,116.52 814.793,112.2 814.02,107.91 813.259,103.718 812.484,99.408 811.704,95.124 810.941,90.857 810.13,86.538 809.343,82.304 808.504,78.082 807.573,73.836 806.521,69.646 805.246,65.519 803.674,61.41 801.709,57.357 799.293,53.439 796.448,49.893 793.674,47.219 791.437,45.462 789.381,44.105 787.27,42.964 784.948,41.93 782.061,41.007 778.44,40.282 774.334,40.0 770.137,40.288 765.968,41.177 761.8,42.614 757.699,44.635 753.823,47.145 750.298,49.955 747.16,52.905 744.291,56.072 741.549,59.412 738.967,62.862 736.366,66.384 733.812,69.928 731.369,73.453 728.882,76.993 726.393,80.544 723.877,84.088 721.465,87.589 718.957,90.999 716.462,94.527 713.88,97.927 711.248,101.37 708.529,104.825 705.736,108.143 702.936,111.44 700.014,114.663 697.095,117.828 694.045,120.92 690.929,123.978 687.739,126.857 684.501,129.669 681.168,132.43 677.703,135.039 674.228,137.527 670.777,139.869 667.245,142.064 663.652,144.283 660.077,146.395 656.523,148.412 652.926,150.472 649.253,152.552 645.525,154.718 641.809,157.022 638.122,159.414 634.544,162.104 631.104,164.997 628.046,167.957 625.3,170.988 622.799,174.19 620.601,177.429 618.649,180.805 616.939,184.286 615.463,187.875 614.258,191.617 613.351,195.478 612.633,199.536 612.192,203.793 612.023,208.14 612.112,212.477 612.372,216.809 612.716,221.148 613.046,225.477 613.238,229.775 613.266,234.034 613.089,238.208 612.703,242.253 612.123,246.217 611.306,250.097 610.246,254.016 609.0,257.878 607.481,261.596 605.731,265.378 603.676,269.127 601.419,272.809 598.853,276.41 596.052,279.929 593.134,283.219 590.147,286.342 587.004,289.324 583.707,292.155 580.342,294.838 576.896,297.437 573.318,299.985 569.716,302.42 566.042,304.745 562.342,307.086 558.617,309.334 554.814,311.554 551.073,313.682 547.36,315.821 543.573,317.995 539.773,320.221 535.989,322.484 532.218,324.806 528.508,327.147 524.894,329.511 521.304,331.973 517.79,334.528 514.417,337.215 511.212,340.156 508.271,343.457 505.672,347.298 503.791,351.578 502.917,355.679 502.836,359.134 503.219,362.06 504.174,364.899 506.063,367.983 508.937,371.094 512.583,373.625 516.779,375.445 521.261,376.57 525.811,377.046 530.373,377.061 534.859,376.678 539.179,376.077 543.454,375.355 547.703,374.535 551.968,373.7 556.219,372.803 560.474,371.885 564.721,370.963 568.898,370.001 573.136,369.067 577.409,368.059 581.664,367.089 585.887,366.09 590.09,365.114 594.273,364.114 598.537,363.132 602.786,362.108 606.955,361.133 611.166,360.136 615.436,359.115 619.695,358.131 623.881,357.13 628.101,356.16 632.344,355.16 636.591,354.191 640.826,353.237 645.064,352.286 649.325,351.365 653.584,350.468 657.806,349.617 662.002,348.813 666.286,348.04 670.615,347.309 674.861,346.658 679.146,346.104 683.43,345.672 687.722,345.339 692.128,345.109 696.565,345.011 700.977,345.058 705.346,345.222 709.729,345.547 713.947,346.021 718.134,346.638 722.311,347.42 726.376,348.35 730.368,349.441 734.314,350.698 738.317,352.192 742.291,353.934 746.231,355.944 750.078,358.221 753.749,360.796 757.25,363.667 760.381,366.758 763.201,370.075 765.639,373.693 767.597,377.719 768.82,382.218 769.084,386.455 768.99,389.344 768.518,391.374 767.065,393.663 764.273,396.669 760.361,399.318 756.148,400.907 751.971,401.927 747.742,402.68 743.47,403.293 739.176,403.836 734.826,404.333 730.478,404.827 726.138,405.266 721.841,405.7 717.51,406.091 713.158,406.505 708.865,406.885 704.526,407.282 700.143,407.638 695.823,407.994 691.518,408.369 687.205,408.667 682.871,409.017 678.504,409.328 674.156,409.639 669.854,409.943 665.503,410.225 661.141,410.508 656.85,410.8 652.54,411.006 648.175,411.28 643.834,411.471 639.493,411.743 635.171,411.955 630.885,412.157 626.536,412.33 622.168,412.577 617.816,412.768 613.544,412.941 609.247,413.148 604.932,413.37 600.626,413.504 596.255,413.707 591.938,413.894 587.616,414.105 583.263,414.256 578.918,414.481 574.607,414.674 570.284,414.864 565.903,415.053 561.639,415.285 557.269,415.465 552.935,415.697 548.632,415.885 544.313,416.095 539.968,416.293 535.617,416.53 531.342,416.75 526.977,416.893 522.648,417.151 518.305,417.363 513.96,417.552 509.706,417.778 505.45,417.981 501.026,418.233 496.62,418.396 492.408,418.622 488.151,418.838 483.751,419.056 479.377,419.257 475.077,419.47 470.777,419.7 466.419,419.9 462.079,420.171 457.791,420.416 453.471,420.662 449.157,420.912 444.857,421.183 440.55,421.428 436.187,421.689 431.773,421.954 427.461,422.212 423.187,422.462 418.837,422.705 414.48,422.96 410.15,423.189 405.814,423.452 401.442,423.71 397.111,423.975 392.909,424.215 388.689,424.47 384.336,424.715 379.953,424.974 375.568,425.181 371.236,425.425 366.932,425.654 362.584,425.839 358.274,425.989 353.954,426.05 349.629,425.981 345.266,425.686 340.849,425.121 336.478,424.212 332.185,422.936 328.145,421.343 324.569,419.496 321.392,417.486 318.567,415.313 315.93,412.94 313.41,410.223 311.018,407.149 308.73,403.585 306.749,399.688 305.151,395.618 303.903,391.333 303.048,386.923 302.566,382.475 302.493,377.976 302.783,373.442 303.423,368.972 304.42,364.547 305.696,360.199 307.247,355.959 309.012,351.824 311.028,347.859 313.377,344.002 315.988,340.285 318.838,336.837 322.283,333.219 325.185,330.752 328.959,328.124 335.962,328.108 335.32,322.245 339.049,319.899 342.777,317.763 346.581,315.783 350.45,313.867 354.272,312.108 358.107,310.436 361.937,308.787 365.839,307.169 369.874,305.528 373.848,303.909 377.781,302.307 381.761,300.659 385.746,298.955 389.681,297.189 393.576,295.361 397.485,293.373 401.364,291.224 405.095,288.934 408.718,286.509 412.253,283.924 415.675,281.142 418.886,278.275 421.911,275.332 424.798,272.237 427.523,268.964 430.126,265.547 432.5,262.089 434.659,258.566 436.745,254.884 438.617,251.124 440.262,247.34 441.792,243.446 443.133,239.419 444.286,235.418 445.229,231.388 446.018,227.238 446.61,223.095 447.042,218.94 447.243,214.725 447.295,210.547 447.165,206.325 446.876,202.035 446.357,197.788 445.742,193.563 444.863,189.29 443.867,184.98 442.703,180.706 441.338,176.513 439.836,172.416 438.278,168.376 436.495,164.37 434.672,160.392 432.754,156.528 430.866,152.676 428.855,148.772 426.933,144.906 424.962,141.17 422.996,137.301 420.909,133.441 418.874,129.562 416.637,125.791 414.358,122.014 411.92,118.353 409.249,114.77 406.357,111.28 403.305,108.105 399.997,105.174 396.411,102.509 392.685,100.234 388.775,98.368 384.705,96.862 380.603,95.798 376.559,95.205 372.69,95.007 369.031,95.191 365.334,95.731 361.51,96.742 357.495,98.23 353.444,100.224 349.638,102.643 346.105,105.409 342.801,108.518 339.889,111.885 337.214,115.418 334.745,119.139 332.449,122.918 330.325,126.685 328.235,130.508 326.15,134.423 324.156,138.257 322.178,142.07 320.128,145.949 318.1,149.81 316.08,153.625 314.065,157.411 312.021,161.214 309.926,165.062 307.885,168.851 305.828,172.641 303.738,176.447 301.702,180.242 299.583,184.056 297.515,187.884 295.453,191.629 293.397,195.372 291.329,199.192 289.228,203.009 287.132,206.863 285.086,210.632 283.003,214.383 280.877,218.303 278.803,222.108 276.762,225.871 274.637,229.637 272.593,233.425 270.528,237.273 268.411,241.045 266.319,244.847 264.259,248.673 262.157,252.478 260.064,256.265 257.932,260.121 255.88,263.9 253.848,267.542 251.748,271.42 249.604,275.26 247.51,279.035 245.449,282.84 243.338,286.599 241.253,290.414 239.157,294.216 237.045,297.99 234.98,301.75 232.919,305.501 230.773,309.324 228.625,313.168 226.538,316.913 224.483,320.648 222.386,324.49 220.255,328.305 218.161,332.051 216.092,335.847 214.014,339.672 211.875,343.434 209.787,347.254 207.678,351.053 205.637,354.859 203.517,358.607 201.442,362.373 199.353,366.203 197.207,370.01 195.125,373.833 192.99,377.588 190.897,381.34 188.828,385.11 186.668,388.867 184.59,392.7 182.527,396.552 180.431,400.35 178.436,404.179 176.373,408.054 174.397,411.846 172.649,415.765 170.592,419.533 168.582,423.323 166.572,427.197 164.357,430.938 162.214,434.698 160.095,438.554 157.798,442.302 155.545,445.978 153.424,449.723 151.14,453.366 148.876,457.069 146.653,460.798 144.342,464.472 142.098,468.221 139.86,471.943 137.585,475.705 135.332,479.502 133.174,483.166 131.054,486.887 128.989,490.727 126.985,494.579 125.123,498.479 123.483,502.497 122.065,506.683 121.009,511.06 120.393,515.577 120.35,520.296 120.786,524.368 121.399,527.312 122.194,529.894 123.421,532.86 125.414,536.411 128.171,540.111 131.396,543.456 134.868,546.272 138.504,548.689 142.338,550.767 146.408,552.578 150.656,554.172 154.983,555.515 159.326,556.658 163.754,557.494 168.313,558.136 172.878,558.449 177.322,558.542 181.71,558.547 186.146,558.43 190.218,560.0 194.89,559.801 199.254,559.891 203.669,559.833 207.513,559.278 212.217,558.258 216.498,557.985 220.79,557.683 225.138,557.43 229.531,557.166 233.884,556.884 238.188,556.667 242.489,556.445 246.854,556.178 251.234,555.98 255.553,555.716 259.882,555.489 264.199,555.247 268.511,554.999 272.862,554.779 277.162,554.57 281.434,554.33 285.778,554.084 290.165,553.877 294.533,553.672 298.789,553.415 303.058,553.217 307.439,553.011 311.755,552.755 316.107,552.587 320.421,552.373 324.739,552.114 329.079,551.988 333.41,551.779 337.729,551.575 342.016,551.458 346.36,551.216 350.765,550.999 355.054,550.836 359.374,550.629 363.707,550.463 368.012,550.277 372.376,550.022 376.728,549.9 381.048,549.711 385.359,549.51 389.683,549.347 394.033,549.135 398.351,548.986 402.672,548.811 407.871,548.783" fill="none" stroke="white" stroke-width="4"
            stroke-linejoin="round" stroke-linecap="round"/>
</svg>
