<?xml version="1.0" encoding="utf-8"?>
<svg xmlns="http://www.w3.org/2000/svg" width="1000" height="600">
  <polyline points="330.067,239.347 330.212,242.34 330.323,245.234 330.472,248.152 330.598,251.12 330.737,254.092 330.853,257.034 330.999,259.986 331.102,262.945 331.245,265.895 331.374,268.866 331.51,271.824 331.619,274.773 331.782,277.738 331.903,280.738 332.066,283.693 332.164,286.639 332.305,289.623 332.465,292.592 332.56,295.538 332.747,298.526 332.821,301.506 332.974,304.443 333.117,307.429 333.234,310.423 333.382,313.373 333.46,316.319 333.64,319.305 333.773,322.268 333.945,325.199 334.015,328.177 334.166,331.159 334.317,334.134 334.411,337.096 334.589,340.03 334.655,342.981 334.831,345.931 334.957,348.882 335.082,351.856 335.198,354.85 335.336,357.83 335.445,360.81 335.568,363.751 335.729,366.714 335.808,369.704 335.987,372.622 336.029,375.567 336.216,378.556 336.328,381.541 336.454,384.495 336.544,387.481 336.724,390.437 336.78,393.36 336.882,396.357 337.033,399.293 337.131,402.241 337.24,405.243 337.367,408.235 337.457,411.231 337.613,414.214 337.697,417.14 337.811,420.092 337.931,423.09 338.049,426.015 338.147,428.916 338.298,431.905 338.388,434.899 338.484,437.87 338.607,440.836 338.732,443.787 338.808,446.767 338.925,449.761 338.97,452.691 339.11,455.556 339.247,458.582 339.351,461.566 339.484,464.523 339.567,467.501 339.675,470.481 339.814,473.422 339.917,476.387 340.009,479.352 340.118,482.319 340.219,485.301 340.297,488.274 340.432,491.238 340.495,494.2 340.577,497.168 340.672,500.111 340.742,503.095 340.814,506.094 340.912,509.025 340.978,511.98 341.06,514.971 341.126,517.944 341.205,520.859 341.289,523.87 341.365,526.885 341.463,529.825 341.543,532.782 341.656,535.778 341.776,538.759 341.94,541.692 342.184,544.644 342.616,547.598 343.344,550.549 344.525,553.477 346.297,556.146 348.335,558.039 349.825,558.969 350.848,559.391 352.191,559.76 354.433,560.0 357.376,559.558 360.252,558.299 362.697,556.569 364.889,554.538 366.964,552.405 368.984,550.237 371.079,548.173 373.302,546.182 375.668,544.376 378.178,542.739 380.513,541.446 382.595,540.604 384.658,539.91 386.952,539.349 389.709,538.884 392.809,538.608 395.921,538.601 398.965,538.824 401.941,539.237 404.862,539.837 407.756,540.551 410.609,541.343 413.437,542.188 416.257,543.047 419.067,543.871 421.876,544.64 424.612,545.318 427.334,545.922 430.044,546.445 432.832,546.895 435.686,547.254 438.555,547.557 441.501,547.705 444.493,547.772 447.464,547.771 450.488,547.668 453.518,547.478 456.45,547.22 459.363,546.903 462.359,546.492 465.31,546.038 468.213,545.56 471.129,545.065 474.054,544.524 476.949,543.963 479.877,543.36 482.76,542.812 485.66,542.225 488.587,541.635 491.518,541.074 494.44,540.451 497.324,539.875 500.266,539.316 503.125,538.69 506.022,538.126 508.988,537.541 511.892,536.988 514.786,536.397 517.688,535.853 520.582,535.271 523.501,534.759 526.373,534.167 529.34,533.65 532.278,533.056 535.186,532.562 538.117,531.995 541.021,531.473 543.934,530.942 546.876,530.398 549.793,529.88 552.702,529.348 555.648,528.777 558.568,528.257 561.445,527.732 564.382,527.186 567.333,526.641 570.223,526.101 573.118,525.562 576.036,525.024 578.921,524.48 581.892,523.962 584.88,523.411 587.809,522.882 590.727,522.348 593.652,521.818 596.532,521.307 599.383,520.792 602.25,520.282 605.147,519.761 608.076,519.247 611.032,518.726 613.988,518.199 616.895,517.675 619.822,517.156 622.742,516.629 625.655,516.111 628.613,515.583 631.551,515.054 634.422,514.532 637.373,514.002 640.307,513.468 643.23,512.945 646.187,512.39 649.087,511.85 651.978,511.276 654.887,510.638 657.756,509.918 660.582,509.045 663.396,507.968 666.172,506.622 668.855,504.968 671.283,503.02 673.115,501.12 674.318,499.588 675.247,498.18 676.029,496.734 676.737,495.144 677.369,493.167 677.865,490.687 678.059,487.875 677.862,485.001 677.253,482.146 676.268,479.291 674.884,476.483 673.165,473.828 671.241,471.414 669.221,469.266 667.052,467.301 664.764,465.423 662.402,463.654 659.99,461.873 657.563,460.124 655.149,458.451 652.725,456.748 650.292,455.043 647.865,453.32 645.468,451.669 643.133,449.95 640.716,448.242 638.388,446.474 636.03,444.671 633.664,442.809 631.392,440.897 629.134,438.979 626.926,436.978 624.759,434.978 622.641,432.89 620.547,430.756 618.575,428.571 616.65,426.354 614.758,424.071 612.972,421.699 611.268,419.318 609.664,416.955 608.161,414.536 606.641,412.076 605.195,409.627 603.814,407.193 602.403,404.73 600.978,402.215 599.495,399.661 597.917,397.117 596.279,394.591 594.437,392.142 592.456,389.785 590.428,387.691 588.353,385.811 586.16,384.098 583.941,382.592 581.629,381.256 579.246,380.085 576.788,379.074 574.225,378.249 571.581,377.627 568.802,377.135 565.887,376.834 562.909,376.718 559.94,376.779 556.973,376.957 554.001,377.193 551.036,377.419 548.093,377.55 545.176,377.569 542.317,377.448 539.547,377.184 536.833,376.787 534.176,376.227 531.492,375.501 528.847,374.648 526.301,373.607 523.711,372.409 521.143,371.001 518.621,369.456 516.156,367.699 513.745,365.78 511.493,363.782 509.354,361.736 507.311,359.584 505.373,357.326 503.535,355.021 501.755,352.662 500.01,350.211 498.343,347.745 496.75,345.228 495.147,342.695 493.608,340.143 492.087,337.539 490.63,334.977 489.165,332.434 487.676,329.841 486.152,327.238 484.602,324.647 483.012,322.064 481.408,319.523 479.79,317.048 478.104,314.59 476.354,312.183 474.514,309.873 472.499,307.679 470.239,305.664 467.609,303.885 464.677,302.596 461.869,301.998 459.502,301.942 457.499,302.204 455.554,302.859 453.442,304.152 451.312,306.12 449.579,308.617 448.332,311.491 447.562,314.561 447.236,317.677 447.225,320.801 447.488,323.873 447.9,326.832 448.394,329.759 448.955,332.669 449.527,335.59 450.142,338.501 450.77,341.415 451.402,344.324 452.06,347.184 452.7,350.086 453.391,353.013 454.055,355.927 454.739,358.819 455.407,361.697 456.092,364.562 456.765,367.482 457.466,370.392 458.134,373.247 458.816,376.131 459.516,379.055 460.189,381.972 460.875,384.839 461.539,387.729 462.224,390.635 462.888,393.543 463.541,396.443 464.193,399.346 464.823,402.264 465.438,405.18 466.02,408.072 466.571,410.946 467.1,413.879 467.601,416.844 468.047,419.752 468.426,422.686 468.722,425.62 468.95,428.559 469.108,431.577 469.174,434.616 469.142,437.637 469.03,440.629 468.807,443.631 468.483,446.519 468.06,449.387 467.525,452.248 466.888,455.032 466.141,457.766 465.28,460.468 464.257,463.209 463.064,465.931 461.687,468.629 460.128,471.264 458.364,473.778 456.398,476.176 454.281,478.32 452.01,480.251 449.532,481.92 446.775,483.261 443.694,484.099 440.792,484.28 438.813,484.216 437.423,483.892 435.855,482.897 433.797,480.985 431.983,478.306 430.895,475.421 430.196,472.56 429.68,469.664 429.26,466.738 428.889,463.797 428.549,460.818 428.21,457.84 427.91,454.869 427.612,451.926 427.344,448.96 427.061,445.979 426.801,443.04 426.529,440.068 426.285,437.066 426.041,434.107 425.784,431.159 425.581,428.206 425.34,425.237 425.128,422.247 424.915,419.269 424.707,416.323 424.513,413.343 424.319,410.356 424.12,407.417 423.979,404.466 423.791,401.477 423.66,398.503 423.474,395.531 423.328,392.571 423.191,389.635 423.072,386.657 422.903,383.666 422.772,380.686 422.654,377.76 422.512,374.817 422.36,371.862 422.268,368.913 422.129,365.919 422.001,362.963 421.856,360.003 421.753,357.022 421.599,354.046 421.466,351.094 421.337,348.133 421.207,345.133 421.048,342.213 420.925,339.22 420.766,336.252 420.637,333.305 420.494,330.347 420.358,327.372 420.196,324.392 420.045,321.464 419.947,318.475 419.77,315.511 419.625,312.536 419.495,309.561 419.341,306.647 419.202,303.732 419.029,300.703 418.918,297.685 418.763,294.801 418.615,291.885 418.465,288.872 418.328,285.876 418.182,282.932 418.025,279.987 417.888,277.003 417.702,274.03 417.534,271.093 417.366,268.135 417.195,265.18 417.009,262.236 416.841,259.286 416.662,256.298 416.481,253.275 416.304,250.322 416.133,247.395 415.967,244.417 415.792,241.433 415.635,238.467 415.455,235.498 415.278,232.503 415.097,229.538 414.932,226.66 414.758,223.77 414.59,220.788 414.413,217.787 414.271,214.784 414.104,211.817 413.947,208.87 413.82,205.892 413.718,202.94 413.676,199.982 413.723,197.019 413.925,194.032 414.312,191.007 414.935,188.014 415.808,185.073 416.899,182.306 418.164,179.857 419.541,177.682 421.029,175.747 422.654,173.941 424.515,172.215 426.62,170.577 429.061,169.011 431.73,167.654 434.517,166.559 437.452,165.704 440.471,165.119 443.518,164.789 446.599,164.739 449.704,164.938 452.765,165.376 455.796,166.059 458.773,166.933 461.677,167.995 464.509,169.204 467.224,170.584 469.866,172.193 472.411,173.981 474.772,175.933 477.25,178.292 478.94,180.28 480.74,182.864 480.75,187.66 484.766,187.221 486.373,189.774 487.835,192.327 489.191,194.933 490.503,197.582 491.708,200.2 492.853,202.826 493.982,205.449 495.09,208.121 496.214,210.885 497.323,213.606 498.42,216.299 499.549,219.025 500.716,221.754 501.925,224.449 503.177,227.117 504.538,229.793 506.01,232.45 507.578,235.005 509.239,237.486 511.01,239.908 512.915,242.251 514.878,244.45 516.893,246.521 519.013,248.499 521.254,250.365 523.595,252.147 525.963,253.773 528.376,255.252 530.897,256.68 533.472,257.963 536.064,259.089 538.73,260.137 541.488,261.055 544.228,261.845 546.989,262.491 549.831,263.031 552.668,263.436 555.513,263.732 558.399,263.87 561.261,263.906 564.153,263.816 567.091,263.619 569.999,263.263 572.893,262.842 575.818,262.24 578.771,261.558 581.697,260.76 584.569,259.826 587.374,258.797 590.142,257.731 592.885,256.509 595.609,255.261 598.255,253.947 600.893,252.655 603.567,251.277 606.214,249.961 608.774,248.611 611.423,247.265 614.066,245.836 616.723,244.442 619.305,242.91 621.892,241.349 624.399,239.679 626.853,237.85 629.243,235.869 631.418,233.779 633.425,231.514 635.25,229.058 636.808,226.506 638.086,223.829 639.117,221.041 639.846,218.232 640.252,215.462 640.388,212.813 640.262,210.307 639.892,207.775 639.199,205.157 638.18,202.407 636.815,199.632 635.158,197.026 633.264,194.606 631.135,192.344 628.829,190.349 626.409,188.518 623.861,186.827 621.273,185.254 618.693,183.8 616.075,182.368 613.394,180.94 610.768,179.575 608.157,178.22 605.501,176.816 602.856,175.427 600.244,174.044 597.651,172.664 595.047,171.265 592.411,169.83 589.816,168.432 587.221,167.023 584.614,165.591 582.015,164.197 579.403,162.746 576.782,161.33 574.217,159.918 571.653,158.51 569.038,157.093 566.423,155.655 563.784,154.219 561.203,152.818 558.634,151.391 555.949,149.935 553.344,148.515 550.767,147.118 548.187,145.662 545.593,144.262 542.958,142.848 540.375,141.398 537.771,139.966 535.151,138.555 532.545,137.115 529.951,135.682 527.311,134.222 524.723,132.817 522.228,131.425 519.572,129.987 516.943,128.518 514.358,127.085 511.752,125.673 509.178,124.227 506.565,122.8 503.961,121.364 501.376,119.918 498.801,118.504 496.233,117.092 493.614,115.622 490.982,114.151 488.417,112.722 485.86,111.315 483.228,109.879 480.615,108.419 478.05,106.985 475.451,105.568 472.831,104.145 470.254,102.68 467.638,101.25 465.037,99.806 462.43,98.408 459.863,96.956 457.285,95.535 454.662,94.104 452.054,92.635 449.436,91.209 446.865,89.747 444.295,88.314 441.713,86.897 439.14,85.417 436.515,83.994 433.877,82.581 431.276,81.146 428.654,79.78 426.0,78.367 423.403,77.014 420.72,75.817 418.139,74.408 415.544,73.031 412.89,71.655 410.328,70.138 407.753,68.67 405.113,67.219 402.545,65.646 400.029,64.103 397.464,62.65 394.969,61.086 392.433,59.536 389.879,58.013 387.363,56.431 384.796,54.894 382.246,53.362 379.67,51.803 377.07,50.26 374.56,48.783 372.012,47.33 369.383,45.916 366.744,44.544 364.074,43.269 361.322,42.145 358.455,41.175 355.457,40.451 352.364,40.029 349.132,40.0 346.344,40.299 344.328,40.719 342.559,41.263 340.528,42.104 338.096,43.468 335.562,45.356 333.271,47.565 331.343,49.942 329.688,52.433 328.264,55.058 327.025,57.846 325.932,60.755 325.013,63.718 324.23,66.693 323.658,69.725 323.218,72.847 323.004,75.973 322.94,79.017 322.937,82.022 323.017,85.06 321.941,87.848 322.078,91.048 322.016,94.037 322.056,97.06 322.436,99.693 323.135,102.914 323.322,105.847 323.528,108.786 323.701,111.763 323.882,114.772 324.076,117.753 324.224,120.7 324.376,123.646 324.559,126.635 324.695,129.635 324.875,132.593 325.031,135.557 325.197,138.514 325.366,141.467 325.517,144.447 325.66,147.391 325.825,150.317 325.993,153.292 326.135,156.297 326.275,159.288 326.451,162.202 326.586,165.126 326.727,168.126 326.903,171.082 327.018,174.063 327.165,177.017 327.342,179.974 327.428,182.946 327.571,185.913 327.711,188.87 327.791,191.806 327.957,194.781 328.106,197.798 328.217,200.735 328.359,203.694 328.472,206.661 328.6,209.609 328.775,212.598 328.859,215.578 328.988,218.537 329.125,221.489 329.237,224.451 329.382,227.43 329.484,230.387 329.604,233.346 329.623,236.906" fill="none" stroke="white" stroke-width="4"
            stroke-linejoin="round" stroke-linecap="round"/>
</svg>
