<?xml version="1.0" encoding="utf-8"?>
<svg xmlns="http://www.w3.org/2000/svg" width="1000" height="600">
  <polyline points="588.566,548.136 584.195,547.923 579.969,547.762 575.707,547.544 571.374,547.359 567.034,547.157 562.739,546.987 558.428,546.775 554.108,546.624 549.799,546.415 545.462,546.227 541.143,546.028 536.837,545.868 532.507,545.631 528.127,545.454 523.811,545.216 519.51,545.073 515.153,544.867 510.817,544.633 506.515,544.495 502.152,544.222 497.801,544.114 493.513,543.89 489.152,543.682 484.78,543.511 480.472,543.295 476.172,543.18 471.811,542.918 467.485,542.724 463.205,542.472 458.857,542.37 454.501,542.15 450.158,541.93 445.832,541.791 441.548,541.532 437.24,541.435 432.933,541.179 428.623,540.995 424.28,540.812 419.908,540.642 415.557,540.441 411.206,540.282 406.911,540.103 402.585,539.868 398.218,539.753 393.958,539.49 389.657,539.43 385.294,539.157 380.934,538.993 376.621,538.809 372.261,538.677 367.944,538.415 363.676,538.332 359.3,538.184 355.014,537.963 350.708,537.82 346.325,537.661 341.955,537.475 337.582,537.345 333.225,537.117 328.953,536.993 324.642,536.828 320.265,536.652 315.994,536.48 311.758,536.336 307.393,536.116 303.021,535.985 298.683,535.845 294.352,535.665 290.044,535.482 285.692,535.371 281.32,535.201 277.041,535.134 272.859,534.93 268.44,534.731 264.083,534.578 259.764,534.384 255.416,534.263 251.065,534.106 246.77,533.903 242.441,533.753 238.111,533.618 233.779,533.458 229.425,533.311 225.083,533.197 220.756,533.0 216.431,532.908 212.097,532.788 207.799,532.65 203.443,532.548 199.063,532.443 194.782,532.299 190.469,532.202 186.101,532.083 181.76,531.987 177.503,531.872 173.106,531.748 168.704,531.637 164.412,531.495 160.093,531.378 155.719,531.213 151.366,531.038 147.083,530.798 142.772,530.441 138.46,529.811 134.151,528.747 129.875,527.023 125.978,524.436 123.213,521.46 121.855,519.284 121.239,517.791 120.7,515.83 120.35,512.556 120.995,508.259 122.833,504.058 125.36,500.489 128.326,497.289 131.439,494.258 134.606,491.308 137.619,488.249 140.527,485.004 143.164,481.548 145.555,477.884 147.443,474.474 148.671,471.434 149.685,468.422 150.505,465.072 151.183,461.046 151.586,456.52 151.596,451.976 151.272,447.531 150.667,443.185 149.792,438.919 148.75,434.694 147.593,430.529 146.358,426.398 145.104,422.281 143.901,418.178 142.778,414.075 141.789,410.081 140.907,406.106 140.142,402.149 139.485,398.078 138.961,393.91 138.519,389.721 138.303,385.419 138.204,381.052 138.206,376.712 138.357,372.297 138.634,367.872 139.011,363.592 139.475,359.338 140.075,354.963 140.738,350.654 141.435,346.415 142.158,342.157 142.948,337.887 143.767,333.659 144.648,329.384 145.447,325.174 146.304,320.939 147.166,316.666 147.985,312.385 148.895,308.119 149.736,303.908 150.552,299.611 151.466,295.437 152.29,291.207 153.144,286.876 153.951,282.635 154.815,278.41 155.609,274.171 156.458,269.947 157.206,265.684 158.071,261.491 158.825,257.157 159.694,252.868 160.415,248.622 161.242,244.342 162.004,240.101 162.78,235.847 163.574,231.551 164.331,227.293 165.108,223.045 165.942,218.743 166.701,214.48 167.467,210.278 168.265,205.99 169.06,201.68 169.849,197.461 170.635,193.234 171.422,188.973 172.215,184.76 172.973,180.422 173.776,176.058 174.549,171.782 175.329,167.521 176.103,163.251 176.849,159.045 177.601,154.881 178.346,150.695 179.107,146.466 179.857,142.188 180.617,137.872 181.387,133.555 182.153,129.311 182.91,125.037 183.68,120.773 184.437,116.52 185.207,112.2 185.98,107.91 186.741,103.718 187.516,99.408 188.296,95.124 189.059,90.857 189.87,86.538 190.657,82.304 191.496,78.082 192.427,73.836 193.479,69.646 194.754,65.519 196.326,61.41 198.291,57.357 200.707,53.439 203.552,49.893 206.326,47.219 208.563,45.462 210.619,44.105 212.73,42.964 215.052,41.93 217.939,41.007 221.56,40.282 225.666,40.0 229.863,40.288 234.032,41.177 238.2,42.614 242.301,44.635 246.177,47.145 249.702,49.955 252.84,52.905 255.709,56.072 258.451,59.412 261.033,62.862 263.634,66.384 266.188,69.928 268.631,73.453 271.118,76.993 273.607,80.544 276.123,84.088 278.535,87.589 281.043,90.999 283.538,94.527 286.12,97.927 288.752,101.37 291.471,104.825 294.264,108.143 297.064,111.44 299.986,114.663 302.905,117.828 305.955,120.92 309.071,123.978 312.261,126.857 315.499,129.669 318.832,132.43 322.297,135.039 325.772,137.527 329.223,139.869 332.755,142.064 336.348,144.283 339.923,146.395 343.477,148.412 347.074,150.472 350.747,152.552 354.475,154.718 358.191,157.022 361.878,159.414 365.456,162.104 368.896,164.997 371.954,167.957 374.7,170.988 377.201,174.19 379.399,177.429 381.351,180.805 383.061,184.286 384.537,187.875 385.742,191.617 386.649,195.478 387.367,199.536 387.808,203.793 387.977,208.14 387.888,212.477 387.628,216.809 387.284,221.148 386.954,225.477 386.762,229.775 386.734,234.034 386.911,238.208 387.297,242.253 387.877,246.217 388.694,250.097 389.754,254.016 391.0,257.878 392.519,261.596 394.269,265.378 396.324,269.127 398.581,272.809 401.147,276.41 403.948,279.929 406.866,283.219 409.853,286.342 412.996,289.324 416.293,292.155 419.658,294.838 423.104,297.437 426.682,299.985 430.284,302.42 433.958,304.745 437.658,307.086 441.383,309.334 445.186,311.554 448.927,313.682 452.64,315.821 456.427,317.995 460.227,320.221 464.011,322.484 467.782,324.806 471.492,327.147 475.106,329.511 478.696,331.973 482.21,334.528 485.583,337.215 488.788,340.156 491.729,343.457 494.328,347.298 496.209,351.578 497.083,355.679 497.164,359.134 496.781,362.06 495.826,364.899 493.937,367.983 491.063,371.094 487.417,373.625 483.221,375.445 478.739,376.57 474.189,377.046 469.627,377.061 465.141,376.678 460.821,376.077 456.546,375.355 452.297,374.535 448.032,373.7 443.781,372.803 439.526,371.885 435.279,370.963 431.102,370.001 426.864,369.067 422.591,368.059 418.336,367.089 414.113,366.09 409.91,365.114 405.727,364.114 401.463,363.132 397.214,362.108 393.045,361.133 388.834,360.136 384.564,359.115 380.305,358.131 376.119,357.13 371.899,356.16 367.656,355.16 363.409,354.191 359.174,353.237 354.936,352.286 350.675,351.365 346.416,350.468 342.194,349.617 337.998,348.813 333.714,348.04 329.385,347.309 325.139,346.658 320.854,346.104 316.57,345.672 312.278,345.339 307.872,345.109 303.435,345.011 299.023,345.058 294.654,345.222 290.271,345.547 286.053,346.021 281.866,346.638 277.689,347.42 273.624,348.35 269.632,349.441 265.686,350.698 261.683,352.192 257.709,353.934 253.769,355.944 249.922,358.221 246.251,360.796 242.75,363.667 239.619,366.758 236.799,370.075 234.361,373.693 232.403,377.719 231.18,382.218 230.916,386.455 231.01,389.344 231.482,391.374 232.935,393.663 235.727,396.669 239.639,399.318 243.852,400.907 248.029,401.927 252.258,402.68 256.53,403.293 260.824,403.836 265.174,404.333 269.522,404.827 273.862,405.266 278.159,405.7 282.49,406.091 286.842,406.505 291.135,406.885 295.474,407.282 299.857,407.638 304.177,407.994 308.482,408.369 312.795,408.667 317.129,409.017 321.496,409.328 325.844,409.639 330.146,409.943 334.497,410.225 338.859,410.508 343.15,410.8 347.46,411.006 351.825,411.28 356.166,411.471 360.507,411.743 364.829,411.955 369.115,412.157 373.464,412.33 377.832,412.577 382.184,412.768 386.456,412.941 390.753,413.148 395.068,413.37 399.374,413.504 403.745,413.707 408.062,413.894 412.384,414.105 416.737,414.256 421.082,414.481 425.393,414.674 429.716,414.864 434.097,415.053 438.361,415.285 442.731,415.465 447.065,415.697 451.368,415.885 455.687,416.095 460.032,416.293 464.383,416.53 468.658,416.75 473.023,416.893 477.352,417.151 481.695,417.363 486.04,417.552 490.294,417.778 494.55,417.981 498.974,418.233 503.38,418.396 507.592,418.622 511.849,418.838 516.249,419.056 520.623,419.257 524.923,419.47 529.223,419.7 533.581,419.9 537.921,420.171 542.209,420.416 546.529,420.662 550.843,420.912 555.143,421.183 559.45,421.428 563.813,421.689 568.227,421.954 572.539,422.212 576.813,422.462 581.163,422.705 585.52,422.96 589.85,423.189 594.186,423.452 598.558,423.71 602.889,423.975 607.091,424.215 611.311,424.47 615.664,424.715 620.047,424.974 624.432,425.181 628.764,425.425 633.068,425.654 637.416,425.839 641.726,425.989 646.046,426.05 650.371,425.981 654.734,425.686 659.151,425.121 663.522,424.212 667.815,422.936 671.855,421.343 675.431,419.496 678.608,417.486 681.433,415.313 684.07,412.94 686.59,410.223 688.982,407.149 691.27,403.585 693.251,399.688 694.849,395.618 696.097,391.333 696.952,386.923 697.434,382.475 697.507,377.976 697.217,373.442 696.577,368.972 695.58,364.547 694.304,360.199 692.753,355.959 690.988,351.824 688.972,347.859 686.623,344.002 684.012,340.285 681.162,336.837 677.717,333.219 674.815,330.752 671.041,328.124 664.038,328.108 664.68,322.245 660.951,319.899 657.223,317.763 653.419,315.783 649.55,313.867 645.728,312.108 641.893,310.436 638.063,308.787 634.161,307.169 630.126,305.528 626.152,303.909 622.219,302.307 618.239,300.659 614.254,298.955 610.319,297.189 606.424,295.361 602.515,293.373 598.636,291.224 594.905,288.934 591.282,286.509 587.747,283.924 584.325,281.142 581.114,278.275 578.089,275.332 575.202,272.237 572.477,268.964 569.874,265.547 567.5,262.089 565.341,258.566 563.255,254.884 561.383,251.124 559.738,247.34 558.208,243.446 556.867,239.419 555.714,235.418 554.771,231.388 553.982,227.238 553.39,223.095 552.958,218.94 552.757,214.725 552.705,210.547 552.835,206.325 553.124,202.035 553.643,197.788 554.258,193.563 555.137,189.29 556.133,184.98 557.297,180.706 558.662,176.513 560.164,172.416 561.722,168.376 563.505,164.37 565.328,160.392 567.246,156.528 569.134,152.676 571.145,148.772 573.067,144.906 575.038,141.17 577.004,137.301 579.091,133.441 581.126,129.562 583.363,125.791 585.642,122.014 588.08,118.353 590.751,114.77 593.643,111.28 596.695,108.105 600.003,105.174 603.589,102.509 607.315,100.234 611.225,98.368 615.295,96.862 619.397,95.798 623.441,95.205 627.31,95.007 630.969,95.191 634.666,95.731 638.49,96.742 642.505,98.23 646.556,100.224 650.362,102.643 653.895,105.409 657.199,108.518 660.111,111.885 662.786,115.418 665.255,119.139 667.551,122.918 669.675,126.685 671.765,130.508 673.85,134.423 675.844,138.257 677.822,142.07 679.872,145.949 681.9,149.81 683.92,153.625 685.935,157.411 687.979,161.214 690.074,165.062 692.115,168.851 694.172,172.641 696.262,176.447 698.298,180.242 700.417,184.056 702.485,187.884 704.547,191.629 706.603,195.372 708.671,199.192 710.772,203.009 712.868,206.863 714.914,210.632 716.997,214.383 719.123,218.303 721.197,222.108 723.238,225.871 725.363,229.637 727.407,233.425 729.472,237.273 731.589,241.045 733.681,244.847 735.741,248.673 737.843,252.478 739.936,256.265 742.068,260.121 744.12,263.9 746.152,267.542 748.252,271.42 750.396,275.26 752.49,279.035 754.551,282.84 756.662,286.599 758.747,290.414 760.843,294.216 762.955,297.99 765.02,301.75 767.081,305.501 769.227,309.324 771.375,313.168 773.462,316.913 775.517,320.648 777.614,324.49 779.745,328.305 781.839,332.051 783.908,335.847 785.986,339.672 788.125,343.434 790.213,347.254 792.322,351.053 794.363,354.859 796.483,358.607 798.558,362.373 800.647,366.203 802.793,370.01 804.875,373.833 807.01,377.588 809.103,381.34 811.172,385.11 813.332,388.867 815.41,392.7 817.473,396.552 819.569,400.35 821.564,404.179 823.627,408.054 825.603,411.846 827.351,415.765 829.408,419.533 831.418,423.323 833.428,427.197 835.643,430.938 837.786,434.698 839.905,438.554 842.202,442.302 844.455,445.978 846.576,449.723 848.86,453.366 851.124,457.069 853.347,460.798 855.658,464.472 857.902,468.221 860.14,471.943 862.415,475.705 864.668,479.502 866.826,483.166 868.946,486.887 871.011,490.727 873.015,494.579 874.877,498.479 876.517,502.497 877.935,506.683 878.991,511.06 879.607,515.577 879.65,520.296 879.214,524.368 878.601,527.312 877.806,529.894 876.579,532.86 874.586,536.411 871.829,540.111 868.604,543.456 865.132,546.272 861.496,548.689 857.662,550.767 853.592,552.578 849.344,554.172 845.017,555.515 840.674,556.658 836.246,557.494 831.687,558.136 827.122,558.449 822.678,558.542 818.29,558.547 813.854,558.43 809.782,560.0 805.11,559.801 800.746,559.891 796.331,559.833 792.487,559.278 787.783,558.258 783.502,557.985 779.21,557.683 774.862,557.43 770.469,557.166 766.116,556.884 761.812,556.667 757.511,556.445 753.146,556.178 748.766,555.98 744.447,555.716 740.118,555.489 735.801,555.247 731.489,554.999 727.138,554.779 722.838,554.57 718.566,554.33 714.222,554.084 709.835,553.877 705.467,553.672 701.211,553.415 696.942,553.217 692.561,553.011 688.245,552.755 683.893,552.587 679.579,552.373 675.261,552.114 670.921,551.988 666.59,551.779 662.271,551.575 657.984,551.458 653.64,551.216 649.235,550.999 644.946,550.836 640.626,550.629 636.293,550.463 631.988,550.277 627.624,550.022 623.272,549.9 618.952,549.711 614.641,549.51 610.317,549.347 605.967,549.135 601.649,548.986 597.328,548.811 592.129,548.783" fill="none" stroke="white" stroke-width="4"
            stroke-linejoin="round" stroke-linecap="round"/>
</svg>
